<svg xmlns="http://www.w3.org/2000/svg" viewBox="0 0 512 512">
  <defs>
    <linearGradient id="g" x1="0" y1="0" x2="1" y2="1">
      <stop offset="0%" stop-color="#ffe066"/>
      <stop offset="100%" stop-color="#ff6b00"/>
    </linearGradient>
  </defs>
  <g shape-rendering="crispEdges">
    <rect x="72" y="17" width="34" height="34" fill="url(#g)"/>
    <rect x="109" y="17" width="34" height="34" fill="url(#g)"/>
    <rect x="368" y="17" width="34" height="34" fill="url(#g)"/>
    <rect x="405" y="17" width="34" height="34" fill="url(#g)"/>
    <rect x="72" y="54" width="34" height="34" fill="url(#g)"/>
    <rect x="109" y="54" width="34" height="34" fill="url(#g)"/>
    <rect x="368" y="54" width="34" height="34" fill="url(#g)"/>
    <rect x="405" y="54" width="34" height="34" fill="url(#g)"/>
    <rect x="72" y="91" width="34" height="34" fill="url(#g)"/>
    <rect x="109" y="91" width="34" height="34" fill="url(#g)"/>
    <rect x="146" y="91" width="34" height="34" fill="url(#g)"/>
    <rect x="331" y="91" width="34" height="34" fill="url(#g)"/>
    <rect x="368" y="91" width="34" height="34" fill="url(#g)"/>
    <rect x="405" y="91" width="34" height="34" fill="url(#g)"/>
    <rect x="72" y="128" width="34" height="34" fill="url(#g)"/>
    <rect x="109" y="128" width="34" height="34" fill="url(#g)"/>
    <rect x="146" y="128" width="34" height="34" fill="url(#g)"/>
    <rect x="331" y="128" width="34" height="34" fill="url(#g)"/>
    <rect x="368" y="128" width="34" height="34" fill="url(#g)"/>
    <rect x="405" y="128" width="34" height="34" fill="url(#g)"/>
    <rect x="72" y="165" width="34" height="34" fill="url(#g)"/>
    <rect x="109" y="165" width="34" height="34" fill="url(#g)"/>
    <rect x="146" y="165" width="34" height="34" fill="url(#g)"/>
    <rect x="183" y="165" width="34" height="34" fill="url(#g)"/>
    <rect x="294" y="165" width="34" height="34" fill="url(#g)"/>
    <rect x="331" y="165" width="34" height="34" fill="url(#g)"/>
    <rect x="368" y="165" width="34" height="34" fill="url(#g)"/>
    <rect x="405" y="165" width="34" height="34" fill="url(#g)"/>
    <rect x="72" y="202" width="34" height="34" fill="url(#g)"/>
    <rect x="109" y="202" width="34" height="34" fill="url(#g)"/>
    <rect x="146" y="202" width="34" height="34" fill="url(#g)"/>
    <rect x="183" y="202" width="34" height="34" fill="url(#g)"/>
    <rect x="294" y="202" width="34" height="34" fill="url(#g)"/>
    <rect x="331" y="202" width="34" height="34" fill="url(#g)"/>
    <rect x="368" y="202" width="34" height="34" fill="url(#g)"/>
    <rect x="405" y="202" width="34" height="34" fill="url(#g)"/>
    <rect x="72" y="239" width="34" height="34" fill="url(#g)"/>
    <rect x="109" y="239" width="34" height="34" fill="url(#g)"/>
    <rect x="146" y="239" width="34" height="34" fill="url(#g)"/>
    <rect x="183" y="239" width="34" height="34" fill="url(#g)"/>
    <rect x="220" y="239" width="34" height="34" fill="url(#g)"/>
    <rect x="257" y="239" width="34" height="34" fill="url(#g)"/>
    <rect x="294" y="239" width="34" height="34" fill="url(#g)"/>
    <rect x="331" y="239" width="34" height="34" fill="url(#g)"/>
    <rect x="368" y="239" width="34" height="34" fill="url(#g)"/>
    <rect x="405" y="239" width="34" height="34" fill="url(#g)"/>
    <rect x="72" y="276" width="34" height="34" fill="url(#g)"/>
    <rect x="109" y="276" width="34" height="34" fill="url(#g)"/>
    <rect x="146" y="276" width="34" height="34" fill="url(#g)"/>
    <rect x="183" y="276" width="34" height="34" fill="url(#g)"/>
    <rect x="220" y="276" width="34" height="34" fill="url(#g)"/>
    <rect x="257" y="276" width="34" height="34" fill="url(#g)"/>
    <rect x="294" y="276" width="34" height="34" fill="url(#g)"/>
    <rect x="331" y="276" width="34" height="34" fill="url(#g)"/>
    <rect x="368" y="276" width="34" height="34" fill="url(#g)"/>
    <rect x="405" y="276" width="34" height="34" fill="url(#g)"/>
    <rect x="72" y="313" width="34" height="34" fill="url(#g)"/>
    <rect x="109" y="313" width="34" height="34" fill="url(#g)"/>
    <rect x="146" y="313" width="34" height="34" fill="url(#g)"/>
    <rect x="220" y="313" width="34" height="34" fill="url(#g)"/>
    <rect x="257" y="313" width="34" height="34" fill="url(#g)"/>
    <rect x="331" y="313" width="34" height="34" fill="url(#g)"/>
    <rect x="368" y="313" width="34" height="34" fill="url(#g)"/>
    <rect x="405" y="313" width="34" height="34" fill="url(#g)"/>
    <rect x="72" y="350" width="34" height="34" fill="url(#g)"/>
    <rect x="109" y="350" width="34" height="34" fill="url(#g)"/>
    <rect x="146" y="350" width="34" height="34" fill="url(#g)"/>
    <rect x="331" y="350" width="34" height="34" fill="url(#g)"/>
    <rect x="368" y="350" width="34" height="34" fill="url(#g)"/>
    <rect x="405" y="350" width="34" height="34" fill="url(#g)"/>
    <rect x="72" y="387" width="34" height="34" fill="url(#g)"/>
    <rect x="109" y="387" width="34" height="34" fill="url(#g)"/>
    <rect x="368" y="387" width="34" height="34" fill="url(#g)"/>
    <rect x="405" y="387" width="34" height="34" fill="url(#g)"/>
    <rect x="72" y="424" width="34" height="34" fill="url(#g)"/>
    <rect x="109" y="424" width="34" height="34" fill="url(#g)"/>
    <rect x="368" y="424" width="34" height="34" fill="url(#g)"/>
    <rect x="405" y="424" width="34" height="34" fill="url(#g)"/>
    <rect x="72" y="461" width="34" height="34" fill="url(#g)"/>
    <rect x="405" y="461" width="34" height="34" fill="url(#g)"/>
  </g>
</svg>
